<svg viewBox="0 0 1200 600" preserveAspectRatio="xMidYMid slice" xmlns="http://www.w3.org/2000/svg">
  <defs>
    <pattern id="grid" width="40" height="40" patternUnits="userSpaceOnUse">
      <path d="M 40 0 L 0 0 0 40" fill="none" stroke="rgba(255,255,255,0.02)" stroke-width="1" />
    </pattern>
    <radialGradient id="glowGradient" cx="50%" cy="50%">
      <stop offset="0%" stop-color="white" stop-opacity="0.1" />
      <stop offset="100%" stop-color="white" stop-opacity="0" />
    </radialGradient>
  </defs>

  <rect width="1200" height="600" fill="#0f172a" />
  <rect width="1200" height="600" fill="url(#grid)" />

  <ellipse cx="900" cy="300" rx="400" ry="300" fill="url(#glowGradient)" />

  <g opacity="0.12">
    <line x1="150" y1="450" x2="320" y2="380" stroke="white" stroke-width="1.5" />
    <line x1="320" y1="380" x2="490" y2="340" stroke="white" stroke-width="1.5" />
    <line x1="490" y1="340" x2="660" y2="280" stroke="white" stroke-width="1.5" />
    <line x1="660" y1="280" x2="830" y2="230" stroke="white" stroke-width="1.5" />
    <line x1="830" y1="230" x2="1000" y2="180" stroke="white" stroke-width="1.5" />

    <circle cx="150" cy="450" r="4" fill="white" />
    <circle cx="320" cy="380" r="4" fill="white" />
    <circle cx="490" cy="340" r="4" fill="white" />
    <circle cx="660" cy="280" r="4" fill="white" />
    <circle cx="830" cy="230" r="4" fill="white" />
    <circle cx="1000" cy="180" r="4" fill="white" />

    <circle cx="150" cy="450" r="12" fill="none" stroke="white" stroke-width="1" />
    <circle cx="320" cy="380" r="12" fill="none" stroke="white" stroke-width="1" />
    <circle cx="490" cy="340" r="12" fill="none" stroke="white" stroke-width="1" />
    <circle cx="660" cy="280" r="12" fill="none" stroke="white" stroke-width="1" />
    <circle cx="830" cy="230" r="12" fill="none" stroke="white" stroke-width="1" />
    <circle cx="1000" cy="180" r="12" fill="none" stroke="white" stroke-width="1" />
  </g>

  <g opacity="0.1">
    <line x1="100" y1="500" x2="280" y2="450" stroke="white" stroke-width="1.5" />
    <line x1="280" y1="450" x2="460" y2="410" stroke="white" stroke-width="1.5" />
    <line x1="460" y1="410" x2="640" y2="380" stroke="white" stroke-width="1.5" />
    <line x1="640" y1="380" x2="820" y2="320" stroke="white" stroke-width="1.5" />
    <line x1="820" y1="320" x2="1000" y2="270" stroke="white" stroke-width="1.5" />

    <circle cx="100" cy="500" r="5" fill="white" />
    <circle cx="280" cy="450" r="5" fill="white" />
    <circle cx="460" cy="410" r="5" fill="white" />
    <circle cx="640" cy="380" r="5" fill="white" />
    <circle cx="820" cy="320" r="5" fill="white" />
    <circle cx="1000" cy="270" r="5" fill="white" />

    <circle cx="100" cy="500" r="14" fill="none" stroke="white" stroke-width="1" />
    <circle cx="280" cy="450" r="14" fill="none" stroke="white" stroke-width="1" />
    <circle cx="460" cy="410" r="14" fill="none" stroke="white" stroke-width="1" />
    <circle cx="640" cy="380" r="14" fill="none" stroke="white" stroke-width="1" />
    <circle cx="820" cy="320" r="14" fill="none" stroke="white" stroke-width="1" />
    <circle cx="1000" cy="270" r="14" fill="none" stroke="white" stroke-width="1" />
  </g>

  <g opacity="0.09">
    <line x1="120" y1="520" x2="300" y2="480" stroke="white" stroke-width="1.5" />
    <line x1="300" y1="480" x2="480" y2="450" stroke="white" stroke-width="1.5" />
    <line x1="480" y1="450" x2="660" y2="400" stroke="white" stroke-width="1.5" />
    <line x1="660" y1="400" x2="840" y2="350" stroke="white" stroke-width="1.5" />
    <line x1="840" y1="350" x2="1020" y2="310" stroke="white" stroke-width="1.5" />

    <circle cx="120" cy="520" r="4" fill="white" />
    <circle cx="300" cy="480" r="4" fill="white" />
    <circle cx="480" cy="450" r="4" fill="white" />
    <circle cx="660" cy="400" r="4" fill="white" />
    <circle cx="840" cy="350" r="4" fill="white" />
    <circle cx="1020" cy="310" r="4" fill="white" />

    <circle cx="120" cy="520" r="13" fill="none" stroke="white" stroke-width="1" />
    <circle cx="300" cy="480" r="13" fill="none" stroke="white" stroke-width="1" />
    <circle cx="480" cy="450" r="13" fill="none" stroke="white" stroke-width="1" />
    <circle cx="660" cy="400" r="13" fill="none" stroke="white" stroke-width="1" />
    <circle cx="840" cy="350" r="13" fill="none" stroke="white" stroke-width="1" />
    <circle cx="1020" cy="310" r="13" fill="none" stroke="white" stroke-width="1" />
  </g>

  <g opacity="0.08">
    <line x1="80" y1="540" x2="260" y2="500" stroke="white" stroke-width="1.5" />
    <line x1="260" y1="500" x2="440" y2="470" stroke="white" stroke-width="1.5" />
    <line x1="440" y1="470" x2="620" y2="450" stroke="white" stroke-width="1.5" />
    <line x1="620" y1="450" x2="800" y2="420" stroke="white" stroke-width="1.5" />
    <line x1="800" y1="420" x2="980" y2="390" stroke="white" stroke-width="1.5" />

    <circle cx="80" cy="540" r="4" fill="white" />
    <circle cx="260" cy="500" r="4" fill="white" />
    <circle cx="440" cy="470" r="4" fill="white" />
    <circle cx="620" cy="450" r="4" fill="white" />
    <circle cx="800" cy="420" r="4" fill="white" />
    <circle cx="980" cy="390" r="4" fill="white" />

    <circle cx="80" cy="540" r="12" fill="none" stroke="white" stroke-width="1" />
    <circle cx="260" cy="500" r="12" fill="none" stroke="white" stroke-width="1" />
    <circle cx="440" cy="470" r="12" fill="none" stroke="white" stroke-width="1" />
    <circle cx="620" cy="450" r="12" fill="none" stroke="white" stroke-width="1" />
    <circle cx="800" cy="420" r="12" fill="none" stroke="white" stroke-width="1" />
    <circle cx="980" cy="390" r="12" fill="none" stroke="white" stroke-width="1" />
  </g>

  <g opacity="0.06">
    <line x1="320" y1="380" x2="280" y2="450" stroke="white" stroke-width="0.5" />
    <line x1="490" y1="340" x2="460" y2="410" stroke="white" stroke-width="0.5" />
    <line x1="660" y1="280" x2="640" y2="380" stroke="white" stroke-width="0.5" />
    <line x1="830" y1="230" x2="820" y2="320" stroke="white" stroke-width="0.5" />

    <line x1="280" y1="450" x2="300" y2="480" stroke="white" stroke-width="0.5" />
    <line x1="460" y1="410" x2="480" y2="450" stroke="white" stroke-width="0.5" />
    <line x1="640" y1="380" x2="660" y2="400" stroke="white" stroke-width="0.5" />
    <line x1="820" y1="320" x2="840" y2="350" stroke="white" stroke-width="0.5" />

    <line x1="300" y1="480" x2="260" y2="500" stroke="white" stroke-width="0.5" />
    <line x1="480" y1="450" x2="440" y2="470" stroke="white" stroke-width="0.5" />
    <line x1="660" y1="400" x2="620" y2="450" stroke="white" stroke-width="0.5" />
    <line x1="840" y1="350" x2="800" y2="420" stroke="white" stroke-width="0.5" />
  </g>

  <g opacity="0.05">
    <circle cx="50" cy="180" r="20" fill="none" stroke="white" stroke-width="1" />
    <circle cx="1100" cy="480" r="25" fill="none" stroke="white" stroke-width="1" />
    <circle cx="950" cy="150" r="22" fill="none" stroke="white" stroke-width="1" />
    <circle cx="200" cy="550" r="18" fill="none" stroke="white" stroke-width="1" />
  </g>

  <g opacity="0.04">
    <rect x="50" y="100" width="25" height="25" fill="none" stroke="white" stroke-width="1" transform="rotate(45 62 112)" />
    <rect x="1050" y="350" width="30" height="30" fill="none" stroke="white" stroke-width="1" transform="rotate(45 1065 365)" />
  </g>
</svg>
